<svg id="visual" viewBox="0 0 900 600" width="900" height="600" xmlns="http://www.w3.org/2000/svg" xmlns:xlink="http://www.w3.org/1999/xlink" version="1.1"><path d="M557 600L554 590.8C551 581.7 545 563.3 555.5 545.2C566 527 593 509 609.5 490.8C626 472.7 632 454.3 645.5 436.2C659 418 680 400 681.5 381.8C683 363.7 665 345.3 663.5 327.2C662 309 677 291 693.5 272.8C710 254.7 728 236.3 713 218.2C698 200 650 182 630.5 163.8C611 145.7 620 127.3 642.5 109.2C665 91 701 73 698 54.8C695 36.7 653 18.3 632 9.2L611 0L900 0L900 9.2C900 18.3 900 36.7 900 54.8C900 73 900 91 900 109.2C900 127.3 900 145.7 900 163.8C900 182 900 200 900 218.2C900 236.3 900 254.7 900 272.8C900 291 900 309 900 327.2C900 345.3 900 363.7 900 381.8C900 400 900 418 900 436.2C900 454.3 900 472.7 900 490.8C900 509 900 527 900 545.2C900 563.3 900 581.7 900 590.8L900 600Z" fill="#6198ff"></path><path d="M440 600L437 590.8C434 581.7 428 563.3 444.5 545.2C461 527 500 509 521 490.8C542 472.7 545 454.3 560 436.2C575 418 602 400 606.5 381.8C611 363.7 593 345.3 579.5 327.2C566 309 557 291 560 272.8C563 254.7 578 236.3 578 218.2C578 200 563 182 545 163.8C527 145.7 506 127.3 512 109.2C518 91 551 73 548 54.8C545 36.7 506 18.3 486.5 9.2L467 0L612 0L633 9.2C654 18.3 696 36.7 699 54.8C702 73 666 91 643.5 109.2C621 127.3 612 145.7 631.5 163.8C651 182 699 200 714 218.2C729 236.3 711 254.7 694.5 272.8C678 291 663 309 664.5 327.2C666 345.3 684 363.7 682.5 381.8C681 400 660 418 646.5 436.2C633 454.3 627 472.7 610.5 490.8C594 509 567 527 556.5 545.2C546 563.3 552 581.7 555 590.8L558 600Z" fill="#3c80ff"></path><path d="M359 600L359 590.8C359 581.7 359 563.3 377 545.2C395 527 431 509 449 490.8C467 472.7 467 454.3 477.5 436.2C488 418 509 400 504.5 381.8C500 363.7 470 345.3 456.5 327.2C443 309 446 291 458 272.8C470 254.7 491 236.3 489.5 218.2C488 200 464 182 444.5 163.8C425 145.7 410 127.3 416 109.2C422 91 449 73 450.5 54.8C452 36.7 428 18.3 416 9.2L404 0L468 0L487.5 9.2C507 18.3 546 36.7 549 54.8C552 73 519 91 513 109.2C507 127.3 528 145.7 546 163.8C564 182 579 200 579 218.2C579 236.3 564 254.7 561 272.8C558 291 567 309 580.5 327.2C594 345.3 612 363.7 607.5 381.8C603 400 576 418 561 436.2C546 454.3 543 472.7 522 490.8C501 509 462 527 445.5 545.2C429 563.3 435 581.7 438 590.8L441 600Z" fill="#0066ff"></path><path d="M179 600L176 590.8C173 581.7 167 563.3 153.5 545.2C140 527 119 509 114.5 490.8C110 472.7 122 454.3 131 436.2C140 418 146 400 141.5 381.8C137 363.7 122 345.3 122 327.2C122 309 137 291 153.5 272.8C170 254.7 188 236.3 194 218.2C200 200 194 182 185 163.8C176 145.7 164 127.3 152 109.2C140 91 128 73 122 54.8C116 36.7 116 18.3 116 9.2L116 0L405 0L417 9.2C429 18.3 453 36.7 451.5 54.8C450 73 423 91 417 109.2C411 127.3 426 145.7 445.5 163.8C465 182 489 200 490.5 218.2C492 236.3 471 254.7 459 272.8C447 291 444 309 457.5 327.2C471 345.3 501 363.7 505.5 381.8C510 400 489 418 478.5 436.2C468 454.3 468 472.7 450 490.8C432 509 396 527 378 545.2C360 563.3 360 581.7 360 590.8L360 600Z" fill="#0059dd"></path><path d="M0 600L0 590.8C0 581.7 0 563.3 0 545.2C0 527 0 509 0 490.8C0 472.7 0 454.3 0 436.2C0 418 0 400 0 381.8C0 363.7 0 345.3 0 327.2C0 309 0 291 0 272.8C0 254.7 0 236.3 0 218.2C0 200 0 182 0 163.8C0 145.7 0 127.3 0 109.2C0 91 0 73 0 54.8C0 36.7 0 18.3 0 9.2L0 0L117 0L117 9.2C117 18.3 117 36.7 123 54.8C129 73 141 91 153 109.2C165 127.3 177 145.7 186 163.8C195 182 201 200 195 218.2C189 236.3 171 254.7 154.5 272.8C138 291 123 309 123 327.2C123 345.3 138 363.7 142.5 381.8C147 400 141 418 132 436.2C123 454.3 111 472.7 115.5 490.8C120 509 141 527 154.5 545.2C168 563.3 174 581.7 177 590.8L180 600Z" fill="#004cbb"></path></svg>